<svg width="32" height="32" viewBox="0 0 32 32" fill="none" xmlns="http://www.w3.org/2000/svg">
<circle cx="16" cy="16" r="16" fill="#006565"/>
<g clip-path="url(#clip0_17_383)">
<path fill-rule="evenodd" clip-rule="evenodd" d="M9.88498 8.51115C10.06 8.33644 10.2701 8.20091 10.5014 8.11354C10.7327 8.02617 10.9799 7.98896 11.2267 8.00437C11.4735 8.01978 11.7142 8.08747 11.9328 8.20293C12.1515 8.3184 12.3431 8.47902 12.495 8.67415L14.29 10.9801C14.619 11.4031 14.735 11.9541 14.605 12.4741L14.058 14.6641C14.0297 14.7776 14.0312 14.8964 14.0624 15.0091C14.0936 15.1217 14.1534 15.2244 14.236 15.3071L16.693 17.7641C16.7758 17.8469 16.8787 17.9068 16.9915 17.938C17.1044 17.9692 17.2234 17.9706 17.337 17.9421L19.526 17.3951C19.7826 17.331 20.0504 17.326 20.3093 17.3806C20.5681 17.4351 20.8111 17.5478 21.02 17.7101L23.326 19.5041C24.155 20.1491 24.231 21.3741 23.489 22.1151L22.455 23.1491C21.715 23.8891 20.609 24.2141 19.578 23.8511C16.9392 22.9227 14.5433 21.412 12.568 19.4311C10.5873 17.4562 9.07659 15.0606 8.14798 12.4221C7.78598 11.3921 8.11098 10.2851 8.85098 9.54515L9.88498 8.51115Z" fill="white"/>
</g>
<defs>
<clipPath id="clip0_17_383">
<rect width="16" height="16" fill="white" transform="translate(8 8)"/>
</clipPath>
</defs>
</svg>
