<svg width="22" height="22" viewBox="0 0 22 22" fill="none" xmlns="http://www.w3.org/2000/svg">
<path d="M21.1836 10.836L12.1274 1.78443L11.5204 1.1774C11.382 1.04 11.195 0.962891 11 0.962891C10.8051 0.962891 10.618 1.04 10.4797 1.1774L0.816455 10.836C0.674731 10.9772 0.562724 11.1453 0.487045 11.3305C0.411367 11.5156 0.373551 11.7141 0.37583 11.9141C0.385205 12.7391 1.07192 13.3977 1.89692 13.3977H2.89302V21.0313H19.1071V13.3977H20.1243C20.525 13.3977 20.9024 13.2407 21.186 12.9571C21.3256 12.8179 21.4363 12.6524 21.5115 12.4701C21.5867 12.2879 21.6251 12.0925 21.6243 11.8954C21.6243 11.4969 21.4672 11.1196 21.1836 10.836ZM12.3125 19.3438H9.68755V14.5626H12.3125V19.3438ZM17.4196 11.7102V19.3438H13.8125V14.0001C13.8125 13.4821 13.393 13.0626 12.875 13.0626H9.12505C8.60708 13.0626 8.18755 13.4821 8.18755 14.0001V19.3438H4.58052V11.7102H2.33052L11.0024 3.04537L11.5438 3.58678L19.6719 11.7102H17.4196Z" fill="#232323"/>
</svg>
