<svg width="112" height="123" viewBox="0 0 112 123" fill="none" xmlns="http://www.w3.org/2000/svg">
<path d="M18.0039 121H8.40158C6.70377 121 5.07551 120.42 3.87498 119.389C2.67445 118.357 2 116.958 2 115.5V96.2498C2 94.7911 2.67445 93.3922 3.87498 92.3607C5.07551 91.3293 6.70377 90.7498 8.40158 90.7498H18.0039M40.4095 85.2499V74.2499C40.4095 72.0619 39.3978 69.9635 37.597 68.4164C35.7962 66.8692 33.3538 66 30.8071 66L18.0039 90.7498V121H54.1088C55.6527 121.015 57.1508 120.55 58.3272 119.691C59.5036 118.832 60.2789 117.636 60.5104 116.325L64.9275 91.5748C65.0668 90.7866 65.0049 89.9817 64.7462 89.216C64.4874 88.4504 64.038 87.7422 63.4291 87.1405C62.8202 86.5389 62.0663 86.0582 61.2196 85.7317C60.373 85.4053 59.4539 85.2408 58.5259 85.2499H40.4095Z" stroke="#006565" stroke-width="3" stroke-linecap="round" stroke-linejoin="round"/>
<path d="M80.9072 65.9998H74.9629C73.9119 65.9998 72.9039 65.6521 72.1607 65.0332C71.4175 64.4144 71 63.575 71 62.6998V51.1499C71 50.2747 71.4175 49.4353 72.1607 48.8164C72.9039 48.1976 73.9119 47.8499 74.9629 47.8499H80.9072M94.7773 44.5499V37.95C94.7773 36.6372 94.151 35.3781 93.0362 34.4498C91.9215 33.5215 90.4095 33 88.833 33L80.9072 47.8499V65.9998H103.258C104.214 66.0088 105.141 65.7299 105.869 65.2144C106.597 64.6989 107.077 63.9817 107.221 63.1948L109.955 48.3449C110.041 47.8719 110.003 47.389 109.843 46.9296C109.683 46.4702 109.404 46.0453 109.028 45.6843C108.651 45.3233 108.184 45.0349 107.66 44.839C107.136 44.6432 106.567 44.5445 105.992 44.5499H94.7773Z" stroke="#006565" stroke-width="2.3" stroke-linecap="round" stroke-linejoin="round"/>
<path d="M59.5887 20.9999H56.2355C55.6426 20.9999 55.074 20.7892 54.6548 20.4141C54.2355 20.039 54 19.5303 54 18.9999V11.9999C54 11.4695 54.2355 10.9608 54.6548 10.5857C55.074 10.2107 55.6426 9.99994 56.2355 9.99994H59.5887M67.4128 7.99996V3.99998C67.4128 3.20434 67.0595 2.44128 66.4307 1.87867C65.8018 1.31607 64.9489 1 64.0596 1L59.5887 9.99994V20.9999H72.1967C72.7359 21.0053 73.259 20.8363 73.6698 20.5239C74.0806 20.2115 74.3514 19.7768 74.4322 19.2999L75.9747 10.2999C76.0233 10.0133 76.0017 9.72063 75.9114 9.4422C75.821 9.16377 75.6641 8.90624 75.4514 8.68747C75.2388 8.46869 74.9755 8.29389 74.6799 8.17517C74.3842 8.05646 74.0633 7.99667 73.7392 7.99996H67.4128Z" stroke="#006565" stroke-width="1.8" stroke-linecap="round" stroke-linejoin="round"/>
</svg>
