<svg width="17" height="17" viewBox="0 0 17 17" fill="none" xmlns="http://www.w3.org/2000/svg">
<path d="M5.08036 1C5.24409 1 5.40484 1.04382 5.54592 1.1269C5.687 1.20999 5.80328 1.32931 5.88269 1.47249L7.00474 3.49366C7.07709 3.62404 7.11657 3.77009 7.11977 3.91916C7.12297 4.06823 7.08978 4.21584 7.02309 4.3492L5.94232 6.51165C5.94232 6.51165 6.25563 8.12226 7.56669 9.43377C8.8782 10.7448 10.4833 11.0531 10.4833 11.0531L12.6453 9.97186C12.7787 9.90509 12.9264 9.87187 13.0756 9.87506C13.2247 9.87826 13.3709 9.91779 13.5013 9.99021L15.5289 11.1178C15.6717 11.1973 15.7907 11.3136 15.8736 11.4546C15.9564 11.5956 16.0001 11.7561 16 11.9196V14.2468C16 15.4321 14.899 16.2881 13.7761 15.9092C11.4696 15.1308 7.88918 13.6491 5.61983 11.3797C3.35095 9.11037 1.86879 5.53043 1.09078 3.22347C0.711867 2.10095 1.56786 1 2.75322 1H5.07991H5.08036Z" stroke="#232323" stroke-width="1.5" stroke-linejoin="round"/>
</svg>
